<?xml version="1.0" encoding="utf-8"?>
<!-- Generator: Adobe Illustrator 24.3.0, SVG Export Plug-In . SVG Version: 6.00 Build 0)  -->
<svg version="1.1" id="Layer_1" xmlns="http://www.w3.org/2000/svg" xmlns:xlink="http://www.w3.org/1999/xlink" x="0px" y="0px"
	 viewBox="0 0 50 50" style="enable-background:new 0 0 50 50;" xml:space="preserve">
<style type="text/css">
	.st0{fill:#FF375F;}
</style>
<g>
	<g>
		<path class="st0" d="M35.2,36.3c-2.2,0-4.1-0.9-5.7-2.6c-0.7-0.8-1.3-1.8-1.8-2.9c-0.4-1.1-0.7-2.3-0.7-3.5c0-2.4,0.8-4.9,2.4-7.4
			c1.6-2.5,3.7-4.6,6.4-6.4c2.3-1.5,4-2.2,5.3-2.2c0.5,0,0.9,0.2,1.3,0.5c0.3,0.3,0.5,0.7,0.5,1.2c0,0.8-0.5,1.4-1.5,1.9
			c-2.3,1.2-4.1,2.4-5.1,3.6c-1,1.1-1.5,1.9-1.5,2.4c0,0.5,0.4,0.8,1.2,0.9l0.5,0.1l0.6,0c1.7,0.3,3,1,4.1,2.3
			c1,1.3,1.6,2.9,1.6,4.7c0,1.9-0.6,3.6-1.9,5C39.3,35.5,37.4,36.3,35.2,36.3z"/>
		<path class="st0" d="M16.6,36.3c-2.2,0-4.1-0.9-5.7-2.6c-0.7-0.8-1.3-1.8-1.8-2.9c-0.4-1.1-0.7-2.3-0.7-3.5c0-2.4,0.8-4.9,2.4-7.4
			c1.6-2.5,3.7-4.6,6.4-6.4c2.3-1.5,4-2.2,5.3-2.2c0.5,0,0.9,0.2,1.3,0.5c0.3,0.3,0.5,0.7,0.5,1.2c0,0.8-0.5,1.4-1.5,1.9
			c-2.3,1.2-4.1,2.4-5.1,3.6c-1,1.1-1.5,1.9-1.5,2.4c0,0.5,0.4,0.8,1.2,0.9l0.5,0.1l0.6,0c1.7,0.3,3,1,4.1,2.3
			c1,1.3,1.6,2.9,1.6,4.7c0,1.9-0.6,3.6-1.9,5C20.8,35.5,18.9,36.3,16.6,36.3z"/>
	</g>
</g>
</svg>
